<svg width="32" height="32" viewBox="0 0 32 32" fill="none" xmlns="http://www.w3.org/2000/svg">
<path d="M31.1708 27.2661C32.2764 28.3727 32.2764 30.0941 31.1708 31.2008C30.618 31.7541 29.9424 32 29.2054 32C28.4683 32 27.7927 31.7541 27.2399 31.2008L16 19.95L4.76008 31.2008C4.20729 31.7541 3.53167 32 2.79463 32C2.05758 32 1.38196 31.7541 0.829175 31.2008C-0.276392 30.0941 -0.276392 28.3727 0.829175 27.2661L12.0691 16.0154L0.829175 4.76465C-0.276392 3.65802 -0.276392 1.9366 0.829175 0.829971C1.93474 -0.276657 3.65451 -0.276657 4.76008 0.829971L16 12.0807L27.2399 0.829971C28.3455 -0.276657 30.0653 -0.276657 31.1708 0.829971C32.2764 1.9366 32.2764 3.65802 31.1708 4.76465L19.9309 16.0154L31.1708 27.2661Z" fill="#FFFBE9"/>
</svg>
