<svg width="144" height="144" viewBox="0 0 144 144" fill="none" xmlns="http://www.w3.org/2000/svg">
<path d="M72 138C108.451 138 138 108.451 138 72C138 35.5492 108.451 6 72 6C35.5492 6 6 35.5492 6 72C6 108.451 35.5492 138 72 138Z" stroke="#E3CAA5" stroke-width="12" stroke-linecap="round" stroke-linejoin="round"/>
<path d="M100.585 105C97.6857 99.9847 93.5182 95.821 88.5008 92.9262C83.4835 90.0314 77.7928 88.5075 72.0003 88.5074C66.2077 88.5074 60.517 90.0312 55.4996 92.9259C50.4822 95.8206 46.3146 99.9843 43.4152 104.999" stroke="#E3CAA5" stroke-width="12" stroke-linecap="round" stroke-linejoin="round"/>
<path d="M47.25 65.125C51.047 65.125 54.125 62.047 54.125 58.25C54.125 54.453 51.047 51.375 47.25 51.375C43.453 51.375 40.375 54.453 40.375 58.25C40.375 62.047 43.453 65.125 47.25 65.125Z" fill="#E3CAA5"/>
<path d="M96.75 65.125C100.547 65.125 103.625 62.047 103.625 58.25C103.625 54.453 100.547 51.375 96.75 51.375C92.953 51.375 89.875 54.453 89.875 58.25C89.875 62.047 92.953 65.125 96.75 65.125Z" fill="#E3CAA5"/>
</svg>
