<svg width="17" height="17" viewBox="0 0 17 17" fill="none" xmlns="http://www.w3.org/2000/svg">
<path d="M16.4 8.349C16.4 8.48161 16.3473 8.60879 16.2535 8.70256C16.1598 8.79632 16.0326 8.849 15.9 8.849H7.28798C7.15537 8.849 7.02819 8.79632 6.93442 8.70256C6.84065 8.60879 6.78798 8.48161 6.78798 8.349C6.78798 8.2164 6.84065 8.08922 6.93442 7.99545C7.02819 7.90168 7.15537 7.849 7.28798 7.849H15.9C16.0326 7.849 16.1598 7.90168 16.2535 7.99545C16.3473 8.08922 16.4 8.2164 16.4 8.349ZM7.28798 2.8H15.9C16.0326 2.8 16.1598 2.74732 16.2535 2.65356C16.3473 2.55979 16.4 2.43261 16.4 2.3C16.4 2.1674 16.3473 2.04022 16.2535 1.94645C16.1598 1.85268 16.0326 1.8 15.9 1.8H7.28798C7.15537 1.8 7.02819 1.85268 6.93442 1.94645C6.84065 2.04022 6.78798 2.1674 6.78798 2.3C6.78798 2.43261 6.84065 2.55979 6.93442 2.65356C7.02819 2.74732 7.15537 2.8 7.28798 2.8ZM15.9 13.9H7.28798C7.15537 13.9 7.02819 13.9527 6.93442 14.0464C6.84065 14.1402 6.78798 14.2674 6.78798 14.4C6.78798 14.5326 6.84065 14.6598 6.93442 14.7536C7.02819 14.8473 7.15537 14.9 7.28798 14.9H15.9C16.0326 14.9 16.1598 14.8473 16.2535 14.7536C16.3473 14.6598 16.4 14.5326 16.4 14.4C16.4 14.2674 16.3473 14.1402 16.2535 14.0464C16.1598 13.9527 16.0326 13.9 15.9 13.9ZM2.84998 6.1C2.40497 6.1 1.96995 6.23196 1.59994 6.4792C1.22993 6.72643 0.941545 7.07783 0.771248 7.48897C0.60095 7.9001 0.556393 8.3525 0.64321 8.78896C0.730026 9.22541 0.944318 9.62633 1.25899 9.94099C1.57365 10.2557 1.97457 10.47 2.41102 10.5568C2.84748 10.6436 3.29988 10.599 3.71101 10.4287C4.12215 10.2584 4.47355 9.97005 4.72078 9.60004C4.96802 9.23003 5.09998 8.79501 5.09998 8.35C5.09918 7.75351 4.86188 7.18167 4.44009 6.75989C4.01831 6.33811 3.44647 6.1008 2.84998 6.1V6.1ZM4.38998 0.530003L2.33998 2.949L1.49998 1.849C1.46058 1.79647 1.41122 1.75222 1.35472 1.71877C1.29822 1.68531 1.23569 1.66331 1.17069 1.65403C1.10569 1.64474 1.03949 1.64835 0.975886 1.66465C0.912279 1.68094 0.852505 1.70961 0.799977 1.749C0.695427 1.82968 0.626481 1.94796 0.607806 2.07869C0.58913 2.20942 0.622198 2.34228 0.699976 2.449L1.91998 4.049C1.96637 4.10887 2.02534 4.15782 2.09273 4.19238C2.16013 4.22694 2.23429 4.24627 2.30998 4.249H2.31998C2.39228 4.24669 2.46333 4.22951 2.52871 4.19854C2.59408 4.16758 2.65238 4.12348 2.69998 4.069L5.14998 1.169C5.21795 1.06672 5.2459 0.942988 5.22849 0.821415C5.21109 0.699841 5.14955 0.588926 5.05561 0.509817C4.96167 0.430709 4.84189 0.388942 4.71913 0.392481C4.59637 0.396019 4.47921 0.444615 4.38998 0.529003V0.530003ZM2.84998 12.149C2.40501 12.149 1.97004 12.2809 1.60005 12.5281C1.23006 12.7753 0.94167 13.1267 0.771343 13.5377C0.601017 13.9488 0.556401 14.4012 0.643137 14.8376C0.729872 15.274 0.944065 15.6749 1.25863 15.9896C1.5732 16.3043 1.97402 16.5187 2.41041 16.6056C2.8468 16.6926 3.29917 16.6482 3.71032 16.478C4.12147 16.3079 4.47294 16.0196 4.7203 15.6498C4.96765 15.2799 5.09978 14.845 5.09998 14.4C5.09945 13.8033 4.86226 13.2312 4.44044 12.8092C4.01863 12.3872 3.44664 12.1498 2.84998 12.149V12.149Z" fill="#E3CAA5"/>
</svg>
