<svg width="21" height="21" viewBox="0 0 21 21" fill="none" xmlns="http://www.w3.org/2000/svg">
<path d="M12.1923 13.9022H11.6471V9.5496C11.6471 9.45449 11.6284 9.3603 11.5921 9.27242C11.5557 9.18453 11.5023 9.10468 11.4351 9.03743C11.3678 8.97018 11.288 8.91684 11.2001 8.88047C11.1122 8.8441 11.018 8.8254 10.9229 8.82546H8.80778C8.61573 8.82546 8.43154 8.90175 8.29574 9.03755C8.15994 9.17336 8.08364 9.35754 8.08364 9.5496C8.08364 9.74165 8.15994 9.92584 8.29574 10.0616C8.43154 10.1974 8.61573 10.2737 8.80778 10.2737H10.1988V13.9022H8.80778C8.61573 13.9022 8.43154 13.9785 8.29574 14.1143C8.15994 14.2501 8.08364 14.4343 8.08364 14.6263C8.08364 14.8184 8.15994 15.0026 8.29574 15.1384C8.43154 15.2742 8.61573 15.3505 8.80778 15.3505H12.1923C12.3843 15.3505 12.5685 15.2742 12.7043 15.1384C12.8401 15.0026 12.9164 14.8184 12.9164 14.6263C12.9164 14.4343 12.8401 14.2501 12.7043 14.1143C12.5685 13.9785 12.3843 13.9022 12.1923 13.9022ZM10.5 7.25073C10.7149 7.25073 10.9249 7.18703 11.1035 7.06767C11.2821 6.94832 11.4213 6.77868 11.5036 6.5802C11.5858 6.38172 11.6073 6.16332 11.5654 5.95262C11.5235 5.74191 11.42 5.54837 11.2681 5.39646C11.1162 5.24455 10.9226 5.1411 10.7119 5.09919C10.5012 5.05728 10.2828 5.07879 10.0844 5.161C9.88588 5.24322 9.71623 5.38244 9.59688 5.56106C9.47753 5.73969 9.41382 5.9497 9.41382 6.16453C9.41382 6.45261 9.52826 6.72889 9.73196 6.93259C9.93567 7.13629 10.2119 7.25073 10.5 7.25073ZM10.5 1.4483C8.10019 1.451 5.79942 2.40553 4.10247 4.10247C2.40553 5.79942 1.451 8.10019 1.4483 10.5C1.45238 12.8994 2.40735 15.1994 4.104 16.8961C5.80064 18.5927 8.10061 19.5477 10.5 19.5518C12.9007 19.5518 15.203 18.5981 16.9006 16.9006C18.5981 15.203 19.5518 12.9007 19.5518 10.5C19.5518 8.09936 18.5981 5.79702 16.9006 4.09949C15.203 2.40196 12.9007 1.4483 10.5 1.4483ZM15.808 15.9353C14.552 17.1591 12.9112 17.9107 11.1641 18.0626C9.41696 18.2145 7.67111 17.7572 6.22273 16.7685C4.77435 15.7797 3.71264 14.3203 3.21773 12.6379C2.72282 10.9555 2.82519 9.15364 3.50747 7.53811C4.18975 5.92258 5.40993 4.59283 6.96098 3.77448C8.51203 2.95613 10.2984 2.69957 12.0171 3.04833C13.7358 3.39709 15.2809 4.3297 16.3902 5.68792C17.4996 7.04614 18.1049 8.74633 18.1035 10.5C18.106 11.5138 17.904 12.5176 17.5095 13.4515C17.1151 14.3854 16.5364 15.2302 15.808 15.9353Z" fill="#E3CAA5"/>
</svg>
