<svg width="122" height="122" viewBox="0 0 122 122" fill="none" xmlns="http://www.w3.org/2000/svg">
<path d="M99.583 26.649H92.4531V19.8822C92.4974 17.176 91.4669 14.5626 89.5874 12.6151C87.7078 10.6675 85.1328 9.54468 82.4267 9.49274H77.031C76.5644 6.84389 75.1793 4.44417 73.1191 2.71513C71.0589 0.986096 68.4553 0.0383301 65.7657 0.0383301C63.076 0.0383301 60.4724 0.986096 58.4122 2.71513C56.352 4.44417 54.9669 6.84389 54.5003 9.49274H22.4171C19.711 9.54468 17.136 10.6675 15.2565 12.6151C13.3769 14.5626 12.3464 17.176 12.3907 19.8822V94.4159C12.3464 97.1221 13.3769 99.7354 15.2565 101.683C17.136 103.631 19.711 104.753 22.4171 104.805H29.5469V111.572C29.5026 114.278 30.5332 116.892 32.4127 118.839C34.2922 120.787 36.8673 121.91 39.5733 121.962H99.583C102.289 121.91 104.864 120.787 106.744 118.839C108.623 116.892 109.654 114.278 109.609 111.572V37.0384C109.654 34.3322 108.623 31.7189 106.744 29.7714C104.864 27.8238 102.289 26.701 99.583 26.649V26.649ZM65.7657 7.58654C66.7672 7.60108 67.7228 8.00916 68.426 8.72258C69.1291 9.436 69.5232 10.3975 69.5232 11.3991C69.5232 12.4008 69.129 13.3622 68.4258 14.0756C67.7227 14.789 66.767 15.1971 65.7655 15.2115C64.7639 15.197 63.8083 14.7889 63.1052 14.0755C62.402 13.3621 62.0079 12.4006 62.0079 11.399C62.0079 10.3973 62.4021 9.43585 63.1053 8.72246C63.8084 8.00907 64.7641 7.60104 65.7657 7.58654V7.58654ZM22.4171 97.1803C21.7336 97.1282 21.0982 96.8088 20.6486 96.2913C20.1991 95.7738 19.9716 95.0999 20.0157 94.4159V19.8822C19.9716 19.1981 20.1991 18.5243 20.6486 18.0067C21.0982 17.4892 21.7336 17.1698 22.4171 17.1177H54.6558L47.8201 23.9534C47.1224 24.6719 46.7354 25.636 46.7427 26.6375C46.7501 27.6389 47.1511 28.5973 47.8593 29.3054C48.5675 30.0136 49.5259 30.4146 50.5273 30.4219C51.5288 30.4292 52.4929 30.0422 53.2113 29.3444L60.8467 21.7091C63.4428 22.9304 66.4018 23.1365 69.1421 22.2868C71.8824 21.4372 74.2058 19.5933 75.6556 17.1176L82.4266 17.1177C83.1102 17.1698 83.7456 17.4892 84.1952 18.0067C84.6447 18.5242 84.8722 19.1981 84.8281 19.8822V94.4159C84.8722 95.0999 84.6447 95.7738 84.1952 96.2913C83.7456 96.8088 83.1102 97.1282 82.4267 97.1803H22.4171ZM101.984 111.572C102.028 112.256 101.801 112.93 101.351 113.448C100.902 113.965 100.266 114.284 99.583 114.337H39.5733C38.8898 114.284 38.2544 113.965 37.8049 113.448C37.3553 112.93 37.1279 112.256 37.1719 111.572V104.805H82.4267C85.1328 104.753 87.7078 103.631 89.5874 101.683C91.4669 99.7354 92.4974 97.1221 92.4531 94.4159V34.274H99.583C100.266 34.3261 100.902 34.6455 101.351 35.163C101.801 35.6805 102.028 36.3544 101.984 37.0384V111.572Z" fill="#CEAB93"/>
<path d="M73.3906 43.8053H31.4531C30.4516 43.8198 29.4959 44.2279 28.7928 44.9413C28.0897 45.6548 27.6955 46.6162 27.6956 47.6179C27.6956 48.6196 28.0898 49.581 28.7929 50.2944C29.4961 51.0078 30.4517 51.4158 31.4533 51.4303H73.3906C74.3922 51.4158 75.3478 51.0077 76.051 50.2943C76.7541 49.5809 77.1483 48.6195 77.1483 47.6178C77.1483 46.6161 76.7541 45.6547 76.051 44.9413C75.3478 44.2279 74.3922 43.8198 73.3906 43.8053ZM73.3906 62.8678H31.4531C30.4516 62.8823 29.4959 63.2904 28.7928 64.0038C28.0897 64.7173 27.6955 65.6787 27.6956 66.6804C27.6956 67.6821 28.0898 68.6435 28.7929 69.3569C29.4961 70.0703 30.4517 70.4783 31.4533 70.4928H73.3906C74.3922 70.4783 75.3478 70.0702 76.051 69.3568C76.7541 68.6434 77.1483 67.682 77.1483 66.6803C77.1483 65.6786 76.7541 64.7172 76.051 64.0038C75.3478 63.2904 74.3922 62.8823 73.3906 62.8678V62.8678ZM73.3906 80.0241C72.3886 80.0379 71.4323 80.4457 70.7286 81.1591C70.0249 81.8726 69.6304 82.8345 69.6304 83.8366C69.6304 84.8388 70.025 85.8006 70.7287 86.5141C71.4324 87.2275 72.3887 87.6353 73.3908 87.6491C74.3928 87.6352 75.3491 87.2274 76.0528 86.514C76.7565 85.8005 77.151 84.8386 77.151 83.8365C77.151 82.8343 76.7564 81.8725 76.0527 81.159C75.349 80.4456 74.3927 80.0378 73.3906 80.0241V80.0241ZM58.1406 80.0241C57.1391 80.0386 56.1834 80.4467 55.4803 81.1601C54.7772 81.8735 54.383 82.835 54.3831 83.8366C54.3831 84.8383 54.7773 85.7997 55.4804 86.5131C56.1836 87.2265 57.1392 87.6346 58.1408 87.6491C59.1424 87.6345 60.098 87.2264 60.8011 86.513C61.5042 85.7996 61.8984 84.8381 61.8984 83.8365C61.8983 82.8348 61.5041 81.8734 60.801 81.16C60.0978 80.4466 59.1422 80.0385 58.1406 80.0241Z" fill="#CEAB93"/>
</svg>
